<svg xmlns="http://www.w3.org/2000/svg" xmlns:xlink="http://www.w3.org/1999/xlink" xmlns:lucid="lucid" width="703" height="835"><g transform="translate(-171 -181)" lucid:page-tab-id="0_0"><path d="M240 516a6 6 0 0 1 6-6h148a6 6 0 0 1 6 6v108a6 6 0 0 1-6 6H246a6 6 0 0 1-6-6z" stroke="#3a414a" fill="#fff"/><use xlink:href="#a" transform="matrix(1,0,0,1,252,522) translate(27.907407407407412 53.77777777777778)"/><path d="M180 195.23a6 6 0 0 1 6-6h668a6 6 0 0 1 6 6v808a6 6 0 0 1-6 6H186a6 6 0 0 1-6-6z" stroke="#3a414a" fill="#fff"/><path d="M310 206a6 6 0 0 1 6-6h408a6 6 0 0 1 6 6v28a6 6 0 0 1-6 6H316a6 6 0 0 1-6-6z" stroke="#000" stroke-opacity="0" fill="#fff" fill-opacity="0"/><use xlink:href="#b" transform="matrix(1,0,0,1,315,205) translate(83.05555555555556 19.65277777777778)"/><use xlink:href="#c" transform="matrix(1,0,0,1,315,205) translate(163.11728395061726 19.65277777777778)"/><path d="M220 506a6 6 0 0 1 6-6h268a6 6 0 0 1 6 6v448a6 6 0 0 1-6 6H226a6 6 0 0 1-6-6z" stroke="#3a414a" fill="#fff"/><path d="M240 506a6 6 0 0 1 6-6h228a6 6 0 0 1 6 6v8a6 6 0 0 1-6 6H246a6 6 0 0 1-6-6z" stroke="#000" stroke-opacity="0" fill="#fff" fill-opacity="0"/><use xlink:href="#d" transform="matrix(1,0,0,1,245,505) translate(45.35555555555554 12.8)"/><path d="M240 566a6 6 0 0 1 6-6h228a6 6 0 0 1 6 6v8a6 6 0 0 1-6 6H246a6 6 0 0 1-6-6z" stroke="#000" stroke-opacity="0" fill="#fff" fill-opacity="0"/><use xlink:href="#e" transform="matrix(1,0,0,1,245,565) translate(48.82222222222222 12.8)"/><path d="M360 520.5v23.12" stroke="#3a414a" fill="none"/><path d="M360.5 520.5h-1v-.5h1z" stroke="#3a414a" stroke-width=".05" fill="#3a414a"/><path d="M360 558.38l-4.63-14.26h9.26z" stroke="#3a414a" fill="#3a414a"/><path d="M240 626a6 6 0 0 1 6-6h228a6 6 0 0 1 6 6v308a6 6 0 0 1-6 6H246a6 6 0 0 1-6-6z" stroke="#3a414a" fill="#fff"/><path d="M360 580.5v22.62" stroke="#3a414a" fill="none"/><path d="M360.5 580.5h-1v-.5h1z" stroke="#3a414a" stroke-width=".05" fill="#3a414a"/><path d="M360 617.88l-4.63-14.26h9.26z" stroke="#3a414a" fill="#3a414a"/><path d="M240 626a6 6 0 0 1 6-6h228a6 6 0 0 1 6 6v28a6 6 0 0 1-6 6H246a6 6 0 0 1-6-6z" stroke="#000" stroke-opacity="0" fill="#fff" fill-opacity="0"/><use xlink:href="#f" transform="matrix(1,0,0,1,245,625) translate(75.09259259259261 18.166666666666664)"/><use xlink:href="#g" transform="matrix(1,0,0,1,245,625) translate(120.83333333333333 18.166666666666664)"/><path d="M260 666a6 6 0 0 1 6-6h188a6 6 0 0 1 6 6v28a6 6 0 0 1-6 6H266a6 6 0 0 1-6-6z" stroke="#3a414a" fill="#fff"/><use xlink:href="#h" transform="matrix(1,0,0,1,265,665) translate(44.36419753086419 16.744444444444447)"/><path d="M260 706a6 6 0 0 1 6-6h188a6 6 0 0 1 6 6v28a6 6 0 0 1-6 6H266a6 6 0 0 1-6-6z" stroke="#3a414a" fill="#fff"/><use xlink:href="#i" transform="matrix(1,0,0,1,265,705) translate(44.34814814814814 16.744444444444447)"/><path d="M260 746a6 6 0 0 1 6-6h188a6 6 0 0 1 6 6v28a6 6 0 0 1-6 6H266a6 6 0 0 1-6-6z" stroke="#3a414a" fill="#fff"/><use xlink:href="#j" transform="matrix(1,0,0,1,265,745) translate(38.907407407407405 16.744444444444447)"/><path d="M260 786a6 6 0 0 1 6-6h188a6 6 0 0 1 6 6v28a6 6 0 0 1-6 6H266a6 6 0 0 1-6-6z" stroke="#3a414a" fill="#fff"/><use xlink:href="#k" transform="matrix(1,0,0,1,265,785) translate(38.907407407407405 16.744444444444447)"/><path d="M260 826a6 6 0 0 1 6-6h188a6 6 0 0 1 6 6v28a6 6 0 0 1-6 6H266a6 6 0 0 1-6-6z" stroke="#3a414a" fill="#fff"/><use xlink:href="#l" transform="matrix(1,0,0,1,265,825) translate(25.474074074074082 16.744444444444447)"/><path d="M260 866a6 6 0 0 1 6-6h188a6 6 0 0 1 6 6v28a6 6 0 0 1-6 6H266a6 6 0 0 1-6-6z" stroke="#3a414a" fill="#fff"/><use xlink:href="#m" transform="matrix(1,0,0,1,265,865) translate(42.133333333333326 16.744444444444447)"/><path d="M540 506a6 6 0 0 1 6-6h268a6 6 0 0 1 6 6v448a6 6 0 0 1-6 6H546a6 6 0 0 1-6-6z" stroke="#3a414a" fill="#fff"/><path d="M560 506a6 6 0 0 1 6-6h228a6 6 0 0 1 6 6v8a6 6 0 0 1-6 6H566a6 6 0 0 1-6-6z" stroke="#000" stroke-opacity="0" fill="#fff" fill-opacity="0"/><use xlink:href="#n" transform="matrix(1,0,0,1,565,505) translate(34.33333333333334 12.8)"/><path d="M560 566a6 6 0 0 1 6-6h228a6 6 0 0 1 6 6v8a6 6 0 0 1-6 6H566a6 6 0 0 1-6-6z" stroke="#000" stroke-opacity="0" fill="#fff" fill-opacity="0"/><use xlink:href="#o" transform="matrix(1,0,0,1,565,565) translate(37.80000000000001 12.8)"/><path d="M680 520.5v23.12" stroke="#3a414a" fill="none"/><path d="M680.5 520.5h-1v-.5h1z" stroke="#3a414a" stroke-width=".05" fill="#3a414a"/><path d="M680 558.38l-4.63-14.26h9.26z" stroke="#3a414a" fill="#3a414a"/><path d="M560 626a6 6 0 0 1 6-6h228a6 6 0 0 1 6 6v308a6 6 0 0 1-6 6H566a6 6 0 0 1-6-6z" stroke="#3a414a" fill="#fff"/><path d="M680 580.5v22.62" stroke="#3a414a" fill="none"/><path d="M680.5 580.5h-1v-.5h1z" stroke="#3a414a" stroke-width=".05" fill="#3a414a"/><path d="M680 617.88l-4.63-14.26h9.26z" stroke="#3a414a" fill="#3a414a"/><path d="M560 626a6 6 0 0 1 6-6h228a6 6 0 0 1 6 6v28a6 6 0 0 1-6 6H566a6 6 0 0 1-6-6z" stroke="#000" stroke-opacity="0" fill="#fff" fill-opacity="0"/><use xlink:href="#f" transform="matrix(1,0,0,1,565,625) translate(75.09259259259261 18.166666666666664)"/><use xlink:href="#g" transform="matrix(1,0,0,1,565,625) translate(120.83333333333333 18.166666666666664)"/><path d="M580 666a6 6 0 0 1 6-6h188a6 6 0 0 1 6 6v28a6 6 0 0 1-6 6H586a6 6 0 0 1-6-6z" stroke="#3a414a" fill="#fff"/><use xlink:href="#p" transform="matrix(1,0,0,1,585,665) translate(30.304938271604954 16.744444444444447)"/><path d="M580 706a6 6 0 0 1 6-6h188a6 6 0 0 1 6 6v28a6 6 0 0 1-6 6H586a6 6 0 0 1-6-6z" stroke="#3a414a" fill="#fff"/><use xlink:href="#q" transform="matrix(1,0,0,1,585,705) translate(30.304938271604954 16.744444444444447)"/><path d="M580 746a6 6 0 0 1 6-6h188a6 6 0 0 1 6 6v28a6 6 0 0 1-6 6H586a6 6 0 0 1-6-6z" stroke="#3a414a" fill="#fff"/><use xlink:href="#r" transform="matrix(1,0,0,1,585,745) translate(16.87160493827163 16.744444444444447)"/><path d="M580 786a6 6 0 0 1 6-6h188a6 6 0 0 1 6 6v28a6 6 0 0 1-6 6H586a6 6 0 0 1-6-6z" stroke="#3a414a" fill="#fff"/><use xlink:href="#s" transform="matrix(1,0,0,1,585,785) translate(50.09382716049382 16.744444444444447)"/><path d="M220 255.23a6 6 0 0 1 6-6h268a6 6 0 0 1 6 6V434a6 6 0 0 1-6 6H226a6 6 0 0 1-6-6zM540 255.23a6 6 0 0 1 6-6h268a6 6 0 0 1 6 6V434a6 6 0 0 1-6 6H546a6 6 0 0 1-6-6z" stroke="#3a414a" fill="#fff"/><path d="M680 441v42.12" stroke="#3a414a" fill="none"/><path d="M680.5 441h-1v-.5h1z" stroke="#3a414a" stroke-width=".05" fill="#3a414a"/><path d="M680 497.88l-4.63-14.26h9.26z" stroke="#3a414a" fill="#3a414a"/><path d="M360 441v42.12" stroke="#3a414a" fill="none"/><path d="M360.5 441h-1v-.5h1z" stroke="#3a414a" stroke-width=".05" fill="#3a414a"/><path d="M360 497.88l-4.63-14.26h9.26z" stroke="#3a414a" fill="#3a414a"/><path d="M220 255.23a6 6 0 0 1 6-6h268a6 6 0 0 1 6 6v53.4a6 6 0 0 1-6 6H226a6 6 0 0 1-6-6z" stroke="#3a414a" fill="#fff"/><use xlink:href="#t" transform="matrix(1,0,0,1,232,261.2332736888262) translate(17.533333333333346 23.3)"/><path d="M220 320.62a6 6 0 0 1 6-6h268a6 6 0 0 1 6 6V374a6 6 0 0 1-6 6H226a6 6 0 0 1-6-6z" stroke="#3a414a" fill="#fff"/><use xlink:href="#u" transform="matrix(1,0,0,1,232.00000000000006,326.6166368444131) translate(17.533333333333346 23.3)"/><path d="M220 386a6 6 0 0 1 6-6h268a6 6 0 0 1 6 6v48a6 6 0 0 1-6 6H226a6 6 0 0 1-6-6z" stroke="#3a414a" fill="#fff"/><use xlink:href="#v" transform="matrix(1,0,0,1,232.00000000000006,392) translate(8.222222222222243 21.8)"/><path d="M540 255.23a6 6 0 0 1 6-6h268a6 6 0 0 1 6 6v53.4a6 6 0 0 1-6 6H546a6 6 0 0 1-6-6z" stroke="#3a414a" fill="#fff"/><use xlink:href="#w" transform="matrix(1,0,0,1,552,261.2332736888262) translate(6.511111111111134 23.3)"/><path d="M540 386a6 6 0 0 1 6-6h268a6 6 0 0 1 6 6v48a6 6 0 0 1-6 6H546a6 6 0 0 1-6-6z" stroke="#3a414a" fill="#fff"/><use xlink:href="#x" transform="matrix(1,0,0,1,552,392) translate(-2.799999999999983 21.2)"/><path d="M540 320.62a6 6 0 0 1 6-6h268a6 6 0 0 1 6 6V374a6 6 0 0 1-6 6H546a6 6 0 0 1-6-6z" stroke="#3a414a" fill="#fff"/><g><use xlink:href="#y" transform="matrix(1,0,0,1,552,326.6166368444131) translate(6.511111111111134 23.3)"/></g><path d="M880 195.23a6 6 0 0 1 6-6h668a6 6 0 0 1 6 6v808a6 6 0 0 1-6 6H886a6 6 0 0 1-6-6z" stroke="#3a414a" fill="#fff"/><defs><path fill="#3a414a" d="M30-248c87 1 191-15 191 75 0 78-77 80-158 76V0H30v-248zm33 125c57 0 124 11 124-50 0-59-68-47-124-48v98" id="z"/><path fill="#3a414a" d="M114-163C36-179 61-72 57 0H25l-1-190h30c1 12-1 29 2 39 6-27 23-49 58-41v29" id="A"/><path fill="#3a414a" d="M100-194c62-1 85 37 85 99 1 63-27 99-86 99S16-35 15-95c0-66 28-99 85-99zM99-20c44 1 53-31 53-75 0-43-8-75-51-75s-53 32-53 75 10 74 51 75" id="B"/><path fill="#3a414a" d="M96-169c-40 0-48 33-48 73s9 75 48 75c24 0 41-14 43-38l32 2c-6 37-31 61-74 61-59 0-76-41-82-99-10-93 101-131 147-64 4 7 5 14 7 22l-32 3c-4-21-16-35-41-35" id="C"/><path fill="#3a414a" d="M100-194c63 0 86 42 84 106H49c0 40 14 67 53 68 26 1 43-12 49-29l28 8c-11 28-37 45-77 45C44 4 14-33 15-96c1-61 26-98 85-98zm52 81c6-60-76-77-97-28-3 7-6 17-6 28h103" id="D"/><path fill="#3a414a" d="M135-143c-3-34-86-38-87 0 15 53 115 12 119 90S17 21 10-45l28-5c4 36 97 45 98 0-10-56-113-15-118-90-4-57 82-63 122-42 12 7 21 19 24 35" id="E"/><g id="a"><use transform="matrix(0.06172839506172839,0,0,0.06172839506172839,0,0)" xlink:href="#z"/><use transform="matrix(0.06172839506172839,0,0,0.06172839506172839,14.814814814814813,0)" xlink:href="#A"/><use transform="matrix(0.06172839506172839,0,0,0.06172839506172839,22.160493827160494,0)" xlink:href="#B"/><use transform="matrix(0.06172839506172839,0,0,0.06172839506172839,34.50617283950617,0)" xlink:href="#C"/><use transform="matrix(0.06172839506172839,0,0,0.06172839506172839,45.61728395061728,0)" xlink:href="#D"/><use transform="matrix(0.06172839506172839,0,0,0.06172839506172839,57.962962962962955,0)" xlink:href="#E"/><use transform="matrix(0.06172839506172839,0,0,0.06172839506172839,69.07407407407406,0)" xlink:href="#E"/></g><path fill="#3a414a" d="M212-179c-10-28-35-45-73-45-59 0-87 40-87 99 0 60 29 101 89 101 43 0 62-24 78-52l27 14C228-24 195 4 139 4 59 4 22-46 18-125c-6-104 99-153 187-111 19 9 31 26 39 46" id="F"/><path fill="#3a414a" d="M84 4C-5 8 30-112 23-190h32v120c0 31 7 50 39 49 72-2 45-101 50-169h31l1 190h-30c-1-10 1-25-2-33-11 22-28 36-60 37" id="G"/><path fill="#3a414a" d="M117-194c89-4 53 116 60 194h-32v-121c0-31-8-49-39-48C34-167 62-67 57 0H25l-1-190h30c1 10-1 24 2 32 11-22 29-35 61-36" id="H"/><path fill="#3a414a" d="M59-47c-2 24 18 29 38 22v24C64 9 27 4 27-40v-127H5v-23h24l9-43h21v43h35v23H59v120" id="I"/><g id="b"><use transform="matrix(0.06172839506172839,0,0,0.06172839506172839,0,0)" xlink:href="#F"/><use transform="matrix(0.06172839506172839,0,0,0.06172839506172839,15.987654320987653,0)" xlink:href="#G"/><use transform="matrix(0.06172839506172839,0,0,0.06172839506172839,28.333333333333332,0)" xlink:href="#A"/><use transform="matrix(0.06172839506172839,0,0,0.06172839506172839,35.67901234567901,0)" xlink:href="#A"/><use transform="matrix(0.06172839506172839,0,0,0.06172839506172839,43.02469135802469,0)" xlink:href="#D"/><use transform="matrix(0.06172839506172839,0,0,0.06172839506172839,55.37037037037037,0)" xlink:href="#H"/><use transform="matrix(0.06172839506172839,0,0,0.06172839506172839,67.71604938271605,0)" xlink:href="#I"/></g><path fill="#3a414a" d="M240 0l2-218c-23 76-54 145-80 218h-23L58-218 59 0H30v-248h44l77 211c21-75 51-140 76-211h43V0h-30" id="J"/><path fill="#3a414a" d="M24 0v-261h32V0H24" id="K"/><path fill="#3a414a" d="M24-231v-30h32v30H24zM24 0v-190h32V0H24" id="L"/><path fill="#3a414a" d="M115-194c55 1 70 41 70 98S169 2 115 4C84 4 66-9 55-30l1 105H24l-1-265h31l2 30c10-21 28-34 59-34zm-8 174c40 0 45-34 45-75s-6-73-45-74c-42 0-51 32-51 76 0 43 10 73 51 73" id="M"/><path fill="#3a414a" d="M141 0L90-78 38 0H4l68-98-65-92h35l48 74 47-74h35l-64 92 68 98h-35" id="N"/><path fill="#3a414a" d="M63-220v92h138v28H63V0H30v-248h175v28H63" id="O"/><path fill="#3a414a" d="M141-36C126-15 110 5 73 4 37 3 15-17 15-53c-1-64 63-63 125-63 3-35-9-54-41-54-24 1-41 7-42 31l-33-3c5-37 33-52 76-52 45 0 72 20 72 64v82c-1 20 7 32 28 27v20c-31 9-61-2-59-35zM48-53c0 20 12 33 32 33 41-3 63-29 60-74-43 2-92-5-92 41" id="P"/><g id="c"><use transform="matrix(0.06172839506172839,0,0,0.06172839506172839,0,0)" xlink:href="#J"/><use transform="matrix(0.06172839506172839,0,0,0.06172839506172839,18.456790123456788,0)" xlink:href="#G"/><use transform="matrix(0.06172839506172839,0,0,0.06172839506172839,30.80246913580247,0)" xlink:href="#K"/><use transform="matrix(0.06172839506172839,0,0,0.06172839506172839,35.67901234567901,0)" xlink:href="#I"/><use transform="matrix(0.06172839506172839,0,0,0.06172839506172839,41.851851851851855,0)" xlink:href="#L"/><use transform="matrix(0.06172839506172839,0,0,0.06172839506172839,46.7283950617284,0)" xlink:href="#M"/><use transform="matrix(0.06172839506172839,0,0,0.06172839506172839,59.074074074074076,0)" xlink:href="#K"/><use transform="matrix(0.06172839506172839,0,0,0.06172839506172839,63.95061728395061,0)" xlink:href="#D"/><use transform="matrix(0.06172839506172839,0,0,0.06172839506172839,76.2962962962963,0)" xlink:href="#N"/><use transform="matrix(0.06172839506172839,0,0,0.06172839506172839,87.40740740740742,0)" xlink:href="#O"/><use transform="matrix(0.06172839506172839,0,0,0.06172839506172839,100.92592592592594,0)" xlink:href="#D"/><use transform="matrix(0.06172839506172839,0,0,0.06172839506172839,113.27160493827162,0)" xlink:href="#P"/><use transform="matrix(0.06172839506172839,0,0,0.06172839506172839,125.6172839506173,0)" xlink:href="#I"/><use transform="matrix(0.06172839506172839,0,0,0.06172839506172839,131.79012345679016,0)" xlink:href="#G"/><use transform="matrix(0.06172839506172839,0,0,0.06172839506172839,144.13580246913583,0)" xlink:href="#A"/><use transform="matrix(0.06172839506172839,0,0,0.06172839506172839,151.4814814814815,0)" xlink:href="#D"/></g><path fill="#b392f0" d="M-5 72V49h209v23H-5" id="Q"/><path fill="#b392f0" d="M210-169c-67 3-38 105-44 169h-31v-121c0-29-5-50-35-48C34-165 62-65 56 0H25l-1-190h30c1 10-1 24 2 32 10-44 99-50 107 0 11-21 27-35 58-36 85-2 47 119 55 194h-31v-121c0-29-5-49-35-48" id="R"/><path fill="#b392f0" d="M84 4C-5 8 30-112 23-190h32v120c0 31 7 50 39 49 72-2 45-101 50-169h31l1 190h-30c-1-10 1-25-2-33-11 22-28 36-60 37" id="S"/><path fill="#b392f0" d="M24 0v-261h32V0H24" id="T"/><path fill="#b392f0" d="M59-47c-2 24 18 29 38 22v24C64 9 27 4 27-40v-127H5v-23h24l9-43h21v43h35v23H59v120" id="U"/><path fill="#b392f0" d="M24-231v-30h32v30H24zM24 0v-190h32V0H24" id="V"/><path fill="#b392f0" d="M115-194c55 1 70 41 70 98S169 2 115 4C84 4 66-9 55-30l1 105H24l-1-265h31l2 30c10-21 28-34 59-34zm-8 174c40 0 45-34 45-75s-6-73-45-74c-42 0-51 32-51 76 0 43 10 73 51 73" id="W"/><path fill="#b392f0" d="M100-194c63 0 86 42 84 106H49c0 40 14 67 53 68 26 1 43-12 49-29l28 8c-11 28-37 45-77 45C44 4 14-33 15-96c1-61 26-98 85-98zm52 81c6-60-76-77-97-28-3 7-6 17-6 28h103" id="X"/><path fill="#b392f0" d="M141 0L90-78 38 0H4l68-98-65-92h35l48 74 47-74h35l-64 92 68 98h-35" id="Y"/><path fill="#b392f0" d="M160-131c35 5 61 23 61 61C221 17 115-2 30 0v-248c76 3 177-17 177 60 0 33-19 50-47 57zm-97-11c50-1 110 9 110-42 0-47-63-36-110-37v79zm0 115c55-2 124 14 124-45 0-56-70-42-124-44v89" id="Z"/><path fill="#b392f0" d="M141-36C126-15 110 5 73 4 37 3 15-17 15-53c-1-64 63-63 125-63 3-35-9-54-41-54-24 1-41 7-42 31l-33-3c5-37 33-52 76-52 45 0 72 20 72 64v82c-1 20 7 32 28 27v20c-31 9-61-2-59-35zM48-53c0 20 12 33 32 33 41-3 63-29 60-74-43 2-92-5-92 41" id="aa"/><path fill="#b392f0" d="M96-169c-40 0-48 33-48 73s9 75 48 75c24 0 41-14 43-38l32 2c-6 37-31 61-74 61-59 0-76-41-82-99-10-93 101-131 147-64 4 7 5 14 7 22l-32 3c-4-21-16-35-41-35" id="ab"/><path fill="#b392f0" d="M106-169C34-169 62-67 57 0H25v-261h32l-1 103c12-21 28-36 61-36 89 0 53 116 60 194h-32v-121c2-32-8-49-39-48" id="ac"/><path fill="#b392f0" d="M185-189c-5-48-123-54-124 2 14 75 158 14 163 119 3 78-121 87-175 55-17-10-28-26-33-46l33-7c5 56 141 63 141-1 0-78-155-14-162-118-5-82 145-84 179-34 5 7 8 16 11 25" id="ad"/><g id="d"><use transform="matrix(0.044444444444444446,0,0,0.044444444444444446,0,0)" xlink:href="#Q"/><use transform="matrix(0.044444444444444446,0,0,0.044444444444444446,8.88888888888889,0)" xlink:href="#R"/><use transform="matrix(0.044444444444444446,0,0,0.044444444444444446,22.177777777777777,0)" xlink:href="#S"/><use transform="matrix(0.044444444444444446,0,0,0.044444444444444446,31.066666666666666,0)" xlink:href="#T"/><use transform="matrix(0.044444444444444446,0,0,0.044444444444444446,34.577777777777776,0)" xlink:href="#U"/><use transform="matrix(0.044444444444444446,0,0,0.044444444444444446,39.02222222222222,0)" xlink:href="#V"/><use transform="matrix(0.044444444444444446,0,0,0.044444444444444446,42.53333333333333,0)" xlink:href="#W"/><use transform="matrix(0.044444444444444446,0,0,0.044444444444444446,51.42222222222222,0)" xlink:href="#T"/><use transform="matrix(0.044444444444444446,0,0,0.044444444444444446,54.93333333333332,0)" xlink:href="#X"/><use transform="matrix(0.044444444444444446,0,0,0.044444444444444446,63.82222222222222,0)" xlink:href="#Y"/><use transform="matrix(0.044444444444444446,0,0,0.044444444444444446,71.82222222222222,0)" xlink:href="#Z"/><use transform="matrix(0.044444444444444446,0,0,0.044444444444444446,82.4888888888889,0)" xlink:href="#aa"/><use transform="matrix(0.044444444444444446,0,0,0.044444444444444446,91.37777777777778,0)" xlink:href="#U"/><use transform="matrix(0.044444444444444446,0,0,0.044444444444444446,95.82222222222222,0)" xlink:href="#ab"/><use transform="matrix(0.044444444444444446,0,0,0.044444444444444446,103.82222222222222,0)" xlink:href="#ac"/><use transform="matrix(0.044444444444444446,0,0,0.044444444444444446,112.71111111111111,0)" xlink:href="#ad"/><use transform="matrix(0.044444444444444446,0,0,0.044444444444444446,123.37777777777778,0)" xlink:href="#X"/><use transform="matrix(0.044444444444444446,0,0,0.044444444444444446,132.26666666666668,0)" xlink:href="#T"/><use transform="matrix(0.044444444444444446,0,0,0.044444444444444446,135.7777777777778,0)" xlink:href="#T"/></g><g id="e"><use transform="matrix(0.044444444444444446,0,0,0.044444444444444446,0,0)" xlink:href="#Q"/><use transform="matrix(0.044444444444444446,0,0,0.044444444444444446,8.88888888888889,0)" xlink:href="#X"/><use transform="matrix(0.044444444444444446,0,0,0.044444444444444446,17.77777777777778,0)" xlink:href="#Y"/><use transform="matrix(0.044444444444444446,0,0,0.044444444444444446,25.77777777777778,0)" xlink:href="#X"/><use transform="matrix(0.044444444444444446,0,0,0.044444444444444446,34.66666666666667,0)" xlink:href="#ab"/><use transform="matrix(0.044444444444444446,0,0,0.044444444444444446,42.66666666666667,0)" xlink:href="#S"/><use transform="matrix(0.044444444444444446,0,0,0.044444444444444446,51.55555555555556,0)" xlink:href="#U"/><use transform="matrix(0.044444444444444446,0,0,0.044444444444444446,56,0)" xlink:href="#X"/><use transform="matrix(0.044444444444444446,0,0,0.044444444444444446,64.88888888888889,0)" xlink:href="#Z"/><use transform="matrix(0.044444444444444446,0,0,0.044444444444444446,75.55555555555556,0)" xlink:href="#aa"/><use transform="matrix(0.044444444444444446,0,0,0.044444444444444446,84.44444444444444,0)" xlink:href="#U"/><use transform="matrix(0.044444444444444446,0,0,0.044444444444444446,88.88888888888889,0)" xlink:href="#ab"/><use transform="matrix(0.044444444444444446,0,0,0.044444444444444446,96.88888888888889,0)" xlink:href="#ac"/><use transform="matrix(0.044444444444444446,0,0,0.044444444444444446,105.77777777777776,0)" xlink:href="#ad"/><use transform="matrix(0.044444444444444446,0,0,0.044444444444444446,116.44444444444444,0)" xlink:href="#X"/><use transform="matrix(0.044444444444444446,0,0,0.044444444444444446,125.33333333333334,0)" xlink:href="#T"/><use transform="matrix(0.044444444444444446,0,0,0.044444444444444446,128.84444444444443,0)" xlink:href="#T"/></g><path fill="#3a414a" d="M87-220l-18 92h140l-5 28H64L45 0H11l48-248h178l-5 28H87" id="ae"/><path fill="#3a414a" d="M50-231l6-30h32l-6 30H50zM6 0l37-190h31L37 0H6" id="af"/><path fill="#3a414a" d="M6 0l50-261h32L37 0H6" id="ag"/><path fill="#3a414a" d="M165-48c-4 18 1 34 23 27l-3 20c-29 8-62 0-52-35h-2C116-14 99 4 63 4 30 4 8-16 8-49c0-68 71-67 138-67 10-26 0-56-31-54-26 1-42 9-47 31l-32-5c8-67 160-71 144 15-5 28-9 54-15 81zM42-50c3 52 80 24 89-6 7-12 7-24 11-38-47 1-103-4-100 44" id="ah"/><path fill="#3a414a" d="M68-162c25-46 127-43 121 31C183-60 169 1 98 4 69 5 53-11 43-31L36 0H5l52-261h31zm88 36c2-27-9-43-34-43-55 0-70 51-70 103 0 29 15 45 43 46 52 0 58-58 61-106" id="ai"/><path fill="#3a414a" d="M111-194c62-3 86 47 72 106H45c-7 38 6 69 45 68 27-1 43-14 53-32l24 11C152-15 129 4 87 4 38 3 12-23 12-71c0-70 32-119 99-123zm44 81c14-66-71-72-95-28-4 8-8 17-11 28h106" id="aj"/><g id="f"><use transform="matrix(0.03703703703703702,0,0,0.03703703703703702,0,0)" xlink:href="#ae"/><use transform="matrix(0.03703703703703702,0,0,0.03703703703703702,8.111111111111107,0)" xlink:href="#af"/><use transform="matrix(0.03703703703703702,0,0,0.03703703703703702,11.037037037037031,0)" xlink:href="#ag"/><use transform="matrix(0.03703703703703702,0,0,0.03703703703703702,13.962962962962955,0)" xlink:href="#ag"/><use transform="matrix(0.03703703703703702,0,0,0.03703703703703702,16.88888888888888,0)" xlink:href="#ah"/><use transform="matrix(0.03703703703703702,0,0,0.03703703703703702,24.296296296296283,0)" xlink:href="#ai"/><use transform="matrix(0.03703703703703702,0,0,0.03703703703703702,31.70370370370369,0)" xlink:href="#ag"/><use transform="matrix(0.03703703703703702,0,0,0.03703703703703702,34.62962962962961,0)" xlink:href="#aj"/></g><path fill="#3a414a" d="M238-179c0 84-86 86-175 82L45 0H11l48-248c82 0 179-12 179 69zm-34 1c0-53-64-42-116-43l-19 98c63 0 135 9 135-55" id="ak"/><path fill="#3a414a" d="M51-54c-9 22 5 41 31 30L79-1C43 14 10-4 19-52l22-115H19l5-23h22l19-43h21l-9 43h35l-4 23H73" id="al"/><path fill="#3a414a" d="M67-158c15-20 31-36 64-36 94 0 33 127 27 194h-32l25-140c3-38-53-32-70-12C52-117 51-51 37 0H6l51-261h31" id="am"/><path fill="#3a414a" d="M55-144c13 50 104 24 104 88C159 21 15 23 1-39l26-10c6 40 102 42 102-4-13-50-104-23-104-87 0-71 143-71 148-8l-29 4c-5-35-85-37-89 0" id="an"/><g id="g"><use transform="matrix(0.03703703703703702,0,0,0.03703703703703702,0,0)" xlink:href="#ak"/><use transform="matrix(0.03703703703703702,0,0,0.03703703703703702,8.888888888888886,0)" xlink:href="#ah"/><use transform="matrix(0.03703703703703702,0,0,0.03703703703703702,16.29629629629629,0)" xlink:href="#al"/><use transform="matrix(0.03703703703703702,0,0,0.03703703703703702,19.999999999999993,0)" xlink:href="#am"/><use transform="matrix(0.03703703703703702,0,0,0.03703703703703702,27.407407407407394,0)" xlink:href="#an"/></g><path fill="#b392f0" d="M115-194c53 0 69 39 70 98 0 66-23 100-70 100C84 3 66-7 56-30L54 0H23l1-261h32v101c10-23 28-34 59-34zm-8 174c40 0 45-34 45-75 0-40-5-75-45-74-42 0-51 32-51 76 0 43 10 73 51 73" id="ao"/><path fill="#b392f0" d="M233-177c-1 41-23 64-60 70L243 0h-38l-65-103H63V0H30v-248c88 3 205-21 203 71zM63-129c60-2 137 13 137-47 0-61-80-42-137-45v92" id="ap"/><path fill="#b392f0" d="M101-234c-31-9-42 10-38 44h38v23H63V0H32v-167H5v-23h27c-7-52 17-82 69-68v24" id="aq"/><path fill="#b392f0" d="M145-31C134-9 116 4 85 4 32 4 16-35 15-94c0-59 17-99 70-100 32-1 48 14 60 33 0-11-1-24 2-32h30l-1 268h-32zM93-21c41 0 51-33 51-76s-8-73-50-73c-40 0-46 35-46 75s5 74 45 74" id="ar"/><path fill="#b392f0" d="M140-251c81 0 123 46 123 126C263-46 219 4 140 4 59 4 17-45 17-125s42-126 123-126zm0 227c63 0 89-41 89-101s-29-99-89-99c-61 0-89 39-89 99S79-25 140-24" id="as"/><path fill="#b392f0" d="M114-163C36-179 61-72 57 0H25l-1-190h30c1 12-1 29 2 39 6-27 23-49 58-41v29" id="at"/><path fill="#b392f0" d="M85-194c31 0 48 13 60 33l-1-100h32l1 261h-30c-2-10 0-23-3-31C134-8 116 4 85 4 32 4 16-35 15-94c0-66 23-100 70-100zm9 24c-40 0-46 34-46 75 0 40 6 74 45 74 42 0 51-32 51-76 0-42-9-74-50-73" id="au"/><g id="h"><use transform="matrix(0.03209876543209877,0,0,0.03209876543209877,0,0)" xlink:href="#Q"/><use transform="matrix(0.03209876543209877,0,0,0.03209876543209877,6.419753086419753,0)" xlink:href="#ao"/><use transform="matrix(0.03209876543209877,0,0,0.03209876543209877,12.839506172839506,0)" xlink:href="#aa"/><use transform="matrix(0.03209876543209877,0,0,0.03209876543209877,19.25925925925926,0)" xlink:href="#U"/><use transform="matrix(0.03209876543209877,0,0,0.03209876543209877,22.469135802469136,0)" xlink:href="#ab"/><use transform="matrix(0.03209876543209877,0,0,0.03209876543209877,28.246913580246915,0)" xlink:href="#ac"/><use transform="matrix(0.03209876543209877,0,0,0.03209876543209877,34.66666666666667,0)" xlink:href="#ad"/><use transform="matrix(0.03209876543209877,0,0,0.03209876543209877,42.370370370370374,0)" xlink:href="#X"/><use transform="matrix(0.03209876543209877,0,0,0.03209876543209877,48.79012345679013,0)" xlink:href="#T"/><use transform="matrix(0.03209876543209877,0,0,0.03209876543209877,51.32592592592593,0)" xlink:href="#T"/><use transform="matrix(0.03209876543209877,0,0,0.03209876543209877,53.86172839506173,0)" xlink:href="#ap"/><use transform="matrix(0.03209876543209877,0,0,0.03209876543209877,62.17530864197531,0)" xlink:href="#aq"/><use transform="matrix(0.03209876543209877,0,0,0.03209876543209877,65.3851851851852,0)" xlink:href="#ar"/><use transform="matrix(0.03209876543209877,0,0,0.03209876543209877,71.80493827160495,0)" xlink:href="#as"/><use transform="matrix(0.03209876543209877,0,0,0.03209876543209877,80.79259259259261,0)" xlink:href="#at"/><use transform="matrix(0.03209876543209877,0,0,0.03209876543209877,84.61234567901236,0)" xlink:href="#au"/><use transform="matrix(0.03209876543209877,0,0,0.03209876543209877,91.03209876543212,0)" xlink:href="#X"/><use transform="matrix(0.03209876543209877,0,0,0.03209876543209877,97.45185185185187,0)" xlink:href="#at"/></g><g id="i"><use transform="matrix(0.03209876543209877,0,0,0.03209876543209877,0,0)" xlink:href="#Q"/><use transform="matrix(0.03209876543209877,0,0,0.03209876543209877,6.419753086419753,0)" xlink:href="#ao"/><use transform="matrix(0.03209876543209877,0,0,0.03209876543209877,12.839506172839506,0)" xlink:href="#aa"/><use transform="matrix(0.03209876543209877,0,0,0.03209876543209877,19.25925925925926,0)" xlink:href="#U"/><use transform="matrix(0.03209876543209877,0,0,0.03209876543209877,22.469135802469136,0)" xlink:href="#ab"/><use transform="matrix(0.03209876543209877,0,0,0.03209876543209877,28.246913580246915,0)" xlink:href="#ac"/><use transform="matrix(0.03209876543209877,0,0,0.03209876543209877,34.66666666666667,0)" xlink:href="#ad"/><use transform="matrix(0.03209876543209877,0,0,0.03209876543209877,42.370370370370374,0)" xlink:href="#X"/><use transform="matrix(0.03209876543209877,0,0,0.03209876543209877,48.79012345679013,0)" xlink:href="#T"/><use transform="matrix(0.03209876543209877,0,0,0.03209876543209877,51.32592592592593,0)" xlink:href="#T"/><use transform="matrix(0.03209876543209877,0,0,0.03209876543209877,53.86172839506173,0)" xlink:href="#as"/><use transform="matrix(0.03209876543209877,0,0,0.03209876543209877,62.84938271604939,0)" xlink:href="#U"/><use transform="matrix(0.03209876543209877,0,0,0.03209876543209877,66.05925925925926,0)" xlink:href="#ab"/><use transform="matrix(0.03209876543209877,0,0,0.03209876543209877,71.83703703703705,0)" xlink:href="#as"/><use transform="matrix(0.03209876543209877,0,0,0.03209876543209877,80.82469135802471,0)" xlink:href="#at"/><use transform="matrix(0.03209876543209877,0,0,0.03209876543209877,84.64444444444446,0)" xlink:href="#au"/><use transform="matrix(0.03209876543209877,0,0,0.03209876543209877,91.06419753086422,0)" xlink:href="#X"/><use transform="matrix(0.03209876543209877,0,0,0.03209876543209877,97.48395061728397,0)" xlink:href="#at"/></g><path fill="#b392f0" d="M232-93c-1 65-40 97-104 97C67 4 28-28 28-90v-158h33c8 89-33 224 67 224 102 0 64-133 71-224h33v155" id="av"/><path fill="#b392f0" d="M117-194c89-4 53 116 60 194h-32v-121c0-31-8-49-39-48C34-167 62-67 57 0H25l-1-190h30c1 10-1 24 2 32 11-22 29-35 61-36" id="aw"/><path fill="#b392f0" d="M135-143c-3-34-86-38-87 0 15 53 115 12 119 90S17 21 10-45l28-5c4 36 97 45 98 0-10-56-113-15-118-90-4-57 82-63 122-42 12 7 21 19 24 35" id="ax"/><path fill="#b392f0" d="M206 0h-36l-40-164L89 0H53L-1-190h32L70-26l43-164h34l41 164 42-164h31" id="ay"/><path fill="#b392f0" d="M137 0h-34L2-248h35l83 218 83-218h36" id="az"/><path fill="#b392f0" d="M101-251c82-7 93 87 43 132L82-64C71-53 59-42 53-27h129V0H18c2-99 128-94 128-182 0-28-16-43-45-43s-46 15-49 41l-32-3c6-41 34-60 81-64" id="aA"/><g id="j"><use transform="matrix(0.03209876543209877,0,0,0.03209876543209877,0,0)" xlink:href="#Q"/><use transform="matrix(0.03209876543209877,0,0,0.03209876543209877,6.419753086419753,0)" xlink:href="#ao"/><use transform="matrix(0.03209876543209877,0,0,0.03209876543209877,12.839506172839506,0)" xlink:href="#aa"/><use transform="matrix(0.03209876543209877,0,0,0.03209876543209877,19.25925925925926,0)" xlink:href="#U"/><use transform="matrix(0.03209876543209877,0,0,0.03209876543209877,22.469135802469136,0)" xlink:href="#ab"/><use transform="matrix(0.03209876543209877,0,0,0.03209876543209877,28.246913580246915,0)" xlink:href="#ac"/><use transform="matrix(0.03209876543209877,0,0,0.03209876543209877,34.66666666666667,0)" xlink:href="#ad"/><use transform="matrix(0.03209876543209877,0,0,0.03209876543209877,42.370370370370374,0)" xlink:href="#X"/><use transform="matrix(0.03209876543209877,0,0,0.03209876543209877,48.79012345679013,0)" xlink:href="#T"/><use transform="matrix(0.03209876543209877,0,0,0.03209876543209877,51.32592592592593,0)" xlink:href="#T"/><use transform="matrix(0.03209876543209877,0,0,0.03209876543209877,53.86172839506173,0)" xlink:href="#av"/><use transform="matrix(0.03209876543209877,0,0,0.03209876543209877,62.17530864197531,0)" xlink:href="#aw"/><use transform="matrix(0.03209876543209877,0,0,0.03209876543209877,68.59506172839507,0)" xlink:href="#V"/><use transform="matrix(0.03209876543209877,0,0,0.03209876543209877,71.13086419753087,0)" xlink:href="#ax"/><use transform="matrix(0.03209876543209877,0,0,0.03209876543209877,76.90864197530865,0)" xlink:href="#ay"/><use transform="matrix(0.03209876543209877,0,0,0.03209876543209877,85.22222222222223,0)" xlink:href="#aa"/><use transform="matrix(0.03209876543209877,0,0,0.03209876543209877,91.64197530864197,0)" xlink:href="#W"/><use transform="matrix(0.03209876543209877,0,0,0.03209876543209877,98.06172839506172,0)" xlink:href="#az"/><use transform="matrix(0.03209876543209877,0,0,0.03209876543209877,105.76543209876543,0)" xlink:href="#aA"/></g><path fill="#b392f0" d="M126-127c33 6 58 20 58 59 0 88-139 92-164 29-3-8-5-16-6-25l32-3c6 27 21 44 54 44 32 0 52-15 52-46 0-38-36-46-79-43v-28c39 1 72-4 72-42 0-27-17-43-46-43-28 0-47 15-49 41l-32-3c6-42 35-63 81-64 48-1 79 21 79 65 0 36-21 52-52 59" id="aB"/><g id="k"><use transform="matrix(0.03209876543209877,0,0,0.03209876543209877,0,0)" xlink:href="#Q"/><use transform="matrix(0.03209876543209877,0,0,0.03209876543209877,6.419753086419753,0)" xlink:href="#ao"/><use transform="matrix(0.03209876543209877,0,0,0.03209876543209877,12.839506172839506,0)" xlink:href="#aa"/><use transform="matrix(0.03209876543209877,0,0,0.03209876543209877,19.25925925925926,0)" xlink:href="#U"/><use transform="matrix(0.03209876543209877,0,0,0.03209876543209877,22.469135802469136,0)" xlink:href="#ab"/><use transform="matrix(0.03209876543209877,0,0,0.03209876543209877,28.246913580246915,0)" xlink:href="#ac"/><use transform="matrix(0.03209876543209877,0,0,0.03209876543209877,34.66666666666667,0)" xlink:href="#ad"/><use transform="matrix(0.03209876543209877,0,0,0.03209876543209877,42.370370370370374,0)" xlink:href="#X"/><use transform="matrix(0.03209876543209877,0,0,0.03209876543209877,48.79012345679013,0)" xlink:href="#T"/><use transform="matrix(0.03209876543209877,0,0,0.03209876543209877,51.32592592592593,0)" xlink:href="#T"/><use transform="matrix(0.03209876543209877,0,0,0.03209876543209877,53.86172839506173,0)" xlink:href="#av"/><use transform="matrix(0.03209876543209877,0,0,0.03209876543209877,62.17530864197531,0)" xlink:href="#aw"/><use transform="matrix(0.03209876543209877,0,0,0.03209876543209877,68.59506172839507,0)" xlink:href="#V"/><use transform="matrix(0.03209876543209877,0,0,0.03209876543209877,71.13086419753087,0)" xlink:href="#ax"/><use transform="matrix(0.03209876543209877,0,0,0.03209876543209877,76.90864197530865,0)" xlink:href="#ay"/><use transform="matrix(0.03209876543209877,0,0,0.03209876543209877,85.22222222222223,0)" xlink:href="#aa"/><use transform="matrix(0.03209876543209877,0,0,0.03209876543209877,91.64197530864197,0)" xlink:href="#W"/><use transform="matrix(0.03209876543209877,0,0,0.03209876543209877,98.06172839506172,0)" xlink:href="#az"/><use transform="matrix(0.03209876543209877,0,0,0.03209876543209877,105.76543209876543,0)" xlink:href="#aB"/></g><path fill="#b392f0" d="M30 0v-248h33v221h125V0H30" id="aC"/><path fill="#b392f0" d="M179-190L93 31C79 59 56 82 12 73V49c39 6 53-20 64-50L1-190h34L92-34l54-156h33" id="aD"/><path fill="#b392f0" d="M30-248c87 1 191-15 191 75 0 78-77 80-158 76V0H30v-248zm33 125c57 0 124 11 124-50 0-59-68-47-124-48v98" id="aE"/><path fill="#b392f0" d="M100-194c62-1 85 37 85 99 1 63-27 99-86 99S16-35 15-95c0-66 28-99 85-99zM99-20c44 1 53-31 53-75 0-43-8-75-51-75s-53 32-53 75 10 74 51 75" id="aF"/><path fill="#b392f0" d="M108 0H70L1-190h34L89-25l56-165h34" id="aG"/><g id="l"><use transform="matrix(0.03209876543209877,0,0,0.03209876543209877,0,0)" xlink:href="#Q"/><use transform="matrix(0.03209876543209877,0,0,0.03209876543209877,6.419753086419753,0)" xlink:href="#ao"/><use transform="matrix(0.03209876543209877,0,0,0.03209876543209877,12.839506172839506,0)" xlink:href="#aa"/><use transform="matrix(0.03209876543209877,0,0,0.03209876543209877,19.25925925925926,0)" xlink:href="#U"/><use transform="matrix(0.03209876543209877,0,0,0.03209876543209877,22.469135802469136,0)" xlink:href="#ab"/><use transform="matrix(0.03209876543209877,0,0,0.03209876543209877,28.246913580246915,0)" xlink:href="#ac"/><use transform="matrix(0.03209876543209877,0,0,0.03209876543209877,34.66666666666667,0)" xlink:href="#ad"/><use transform="matrix(0.03209876543209877,0,0,0.03209876543209877,42.370370370370374,0)" xlink:href="#X"/><use transform="matrix(0.03209876543209877,0,0,0.03209876543209877,48.79012345679013,0)" xlink:href="#T"/><use transform="matrix(0.03209876543209877,0,0,0.03209876543209877,51.32592592592593,0)" xlink:href="#T"/><use transform="matrix(0.03209876543209877,0,0,0.03209876543209877,53.86172839506173,0)" xlink:href="#aC"/><use transform="matrix(0.03209876543209877,0,0,0.03209876543209877,60.281481481481485,0)" xlink:href="#V"/><use transform="matrix(0.03209876543209877,0,0,0.03209876543209877,62.81728395061729,0)" xlink:href="#ar"/><use transform="matrix(0.03209876543209877,0,0,0.03209876543209877,69.23703703703704,0)" xlink:href="#S"/><use transform="matrix(0.03209876543209877,0,0,0.03209876543209877,75.6567901234568,0)" xlink:href="#V"/><use transform="matrix(0.03209876543209877,0,0,0.03209876543209877,78.1925925925926,0)" xlink:href="#au"/><use transform="matrix(0.03209876543209877,0,0,0.03209876543209877,84.61234567901235,0)" xlink:href="#V"/><use transform="matrix(0.03209876543209877,0,0,0.03209876543209877,87.14814814814815,0)" xlink:href="#U"/><use transform="matrix(0.03209876543209877,0,0,0.03209876543209877,90.35802469135803,0)" xlink:href="#aD"/><use transform="matrix(0.03209876543209877,0,0,0.03209876543209877,96.1358024691358,0)" xlink:href="#aE"/><use transform="matrix(0.03209876543209877,0,0,0.03209876543209877,103.8395061728395,0)" xlink:href="#at"/><use transform="matrix(0.03209876543209877,0,0,0.03209876543209877,107.65925925925926,0)" xlink:href="#aF"/><use transform="matrix(0.03209876543209877,0,0,0.03209876543209877,114.07901234567902,0)" xlink:href="#aG"/><use transform="matrix(0.03209876543209877,0,0,0.03209876543209877,119.85679012345679,0)" xlink:href="#V"/><use transform="matrix(0.03209876543209877,0,0,0.03209876543209877,122.39259259259259,0)" xlink:href="#au"/><use transform="matrix(0.03209876543209877,0,0,0.03209876543209877,128.81234567901234,0)" xlink:href="#X"/><use transform="matrix(0.03209876543209877,0,0,0.03209876543209877,135.23209876543208,0)" xlink:href="#at"/></g><path fill="#b392f0" d="M240 0l2-218c-23 76-54 145-80 218h-23L58-218 59 0H30v-248h44l77 211c21-75 51-140 76-211h43V0h-30" id="aH"/><path fill="#b392f0" d="M197 0v-115H63V0H30v-248h33v105h134v-105h34V0h-34" id="aI"/><g id="m"><use transform="matrix(0.03209876543209877,0,0,0.03209876543209877,0,0)" xlink:href="#Q"/><use transform="matrix(0.03209876543209877,0,0,0.03209876543209877,6.419753086419753,0)" xlink:href="#aw"/><use transform="matrix(0.03209876543209877,0,0,0.03209876543209877,12.839506172839506,0)" xlink:href="#X"/><use transform="matrix(0.03209876543209877,0,0,0.03209876543209877,19.25925925925926,0)" xlink:href="#ax"/><use transform="matrix(0.03209876543209877,0,0,0.03209876543209877,25.037037037037038,0)" xlink:href="#U"/><use transform="matrix(0.03209876543209877,0,0,0.03209876543209877,28.246913580246915,0)" xlink:href="#X"/><use transform="matrix(0.03209876543209877,0,0,0.03209876543209877,34.66666666666667,0)" xlink:href="#au"/><use transform="matrix(0.03209876543209877,0,0,0.03209876543209877,41.086419753086425,0)" xlink:href="#aH"/><use transform="matrix(0.03209876543209877,0,0,0.03209876543209877,50.683950617283955,0)" xlink:href="#S"/><use transform="matrix(0.03209876543209877,0,0,0.03209876543209877,57.10370370370371,0)" xlink:href="#T"/><use transform="matrix(0.03209876543209877,0,0,0.03209876543209877,59.63950617283951,0)" xlink:href="#U"/><use transform="matrix(0.03209876543209877,0,0,0.03209876543209877,62.84938271604939,0)" xlink:href="#V"/><use transform="matrix(0.03209876543209877,0,0,0.03209876543209877,65.3851851851852,0)" xlink:href="#aI"/><use transform="matrix(0.03209876543209877,0,0,0.03209876543209877,73.69876543209878,0)" xlink:href="#aF"/><use transform="matrix(0.03209876543209877,0,0,0.03209876543209877,80.11851851851853,0)" xlink:href="#W"/><use transform="matrix(0.03209876543209877,0,0,0.03209876543209877,86.53827160493827,0)" xlink:href="#ad"/><use transform="matrix(0.03209876543209877,0,0,0.03209876543209877,94.24197530864198,0)" xlink:href="#X"/><use transform="matrix(0.03209876543209877,0,0,0.03209876543209877,100.66172839506174,0)" xlink:href="#T"/><use transform="matrix(0.03209876543209877,0,0,0.03209876543209877,103.19753086419756,0)" xlink:href="#T"/></g><g id="n"><use transform="matrix(0.044444444444444446,0,0,0.044444444444444446,0,0)" xlink:href="#Q"/><use transform="matrix(0.044444444444444446,0,0,0.044444444444444446,8.88888888888889,0)" xlink:href="#R"/><use transform="matrix(0.044444444444444446,0,0,0.044444444444444446,22.177777777777777,0)" xlink:href="#S"/><use transform="matrix(0.044444444444444446,0,0,0.044444444444444446,31.066666666666666,0)" xlink:href="#T"/><use transform="matrix(0.044444444444444446,0,0,0.044444444444444446,34.577777777777776,0)" xlink:href="#U"/><use transform="matrix(0.044444444444444446,0,0,0.044444444444444446,39.02222222222222,0)" xlink:href="#V"/><use transform="matrix(0.044444444444444446,0,0,0.044444444444444446,42.53333333333333,0)" xlink:href="#W"/><use transform="matrix(0.044444444444444446,0,0,0.044444444444444446,51.42222222222222,0)" xlink:href="#T"/><use transform="matrix(0.044444444444444446,0,0,0.044444444444444446,54.93333333333332,0)" xlink:href="#X"/><use transform="matrix(0.044444444444444446,0,0,0.044444444444444446,63.82222222222222,0)" xlink:href="#Y"/><use transform="matrix(0.044444444444444446,0,0,0.044444444444444446,71.82222222222222,0)" xlink:href="#aH"/><use transform="matrix(0.044444444444444446,0,0,0.044444444444444446,85.11111111111111,0)" xlink:href="#S"/><use transform="matrix(0.044444444444444446,0,0,0.044444444444444446,94,0)" xlink:href="#T"/><use transform="matrix(0.044444444444444446,0,0,0.044444444444444446,97.51111111111112,0)" xlink:href="#U"/><use transform="matrix(0.044444444444444446,0,0,0.044444444444444446,101.95555555555553,0)" xlink:href="#V"/><use transform="matrix(0.044444444444444446,0,0,0.044444444444444446,105.46666666666665,0)" xlink:href="#aI"/><use transform="matrix(0.044444444444444446,0,0,0.044444444444444446,116.97777777777776,0)" xlink:href="#aF"/><use transform="matrix(0.044444444444444446,0,0,0.044444444444444446,125.86666666666665,0)" xlink:href="#W"/><use transform="matrix(0.044444444444444446,0,0,0.044444444444444446,134.75555555555553,0)" xlink:href="#ad"/><use transform="matrix(0.044444444444444446,0,0,0.044444444444444446,145.4222222222222,0)" xlink:href="#X"/><use transform="matrix(0.044444444444444446,0,0,0.044444444444444446,154.31111111111107,0)" xlink:href="#T"/><use transform="matrix(0.044444444444444446,0,0,0.044444444444444446,157.8222222222222,0)" xlink:href="#T"/></g><g id="o"><use transform="matrix(0.044444444444444446,0,0,0.044444444444444446,0,0)" xlink:href="#Q"/><use transform="matrix(0.044444444444444446,0,0,0.044444444444444446,8.88888888888889,0)" xlink:href="#X"/><use transform="matrix(0.044444444444444446,0,0,0.044444444444444446,17.77777777777778,0)" xlink:href="#Y"/><use transform="matrix(0.044444444444444446,0,0,0.044444444444444446,25.77777777777778,0)" xlink:href="#X"/><use transform="matrix(0.044444444444444446,0,0,0.044444444444444446,34.66666666666667,0)" xlink:href="#ab"/><use transform="matrix(0.044444444444444446,0,0,0.044444444444444446,42.66666666666667,0)" xlink:href="#S"/><use transform="matrix(0.044444444444444446,0,0,0.044444444444444446,51.55555555555556,0)" xlink:href="#U"/><use transform="matrix(0.044444444444444446,0,0,0.044444444444444446,56,0)" xlink:href="#X"/><use transform="matrix(0.044444444444444446,0,0,0.044444444444444446,64.88888888888889,0)" xlink:href="#aH"/><use transform="matrix(0.044444444444444446,0,0,0.044444444444444446,78.17777777777778,0)" xlink:href="#S"/><use transform="matrix(0.044444444444444446,0,0,0.044444444444444446,87.06666666666666,0)" xlink:href="#T"/><use transform="matrix(0.044444444444444446,0,0,0.044444444444444446,90.57777777777777,0)" xlink:href="#U"/><use transform="matrix(0.044444444444444446,0,0,0.044444444444444446,95.02222222222221,0)" xlink:href="#V"/><use transform="matrix(0.044444444444444446,0,0,0.044444444444444446,98.53333333333332,0)" xlink:href="#aI"/><use transform="matrix(0.044444444444444446,0,0,0.044444444444444446,110.04444444444442,0)" xlink:href="#aF"/><use transform="matrix(0.044444444444444446,0,0,0.044444444444444446,118.93333333333332,0)" xlink:href="#W"/><use transform="matrix(0.044444444444444446,0,0,0.044444444444444446,127.82222222222218,0)" xlink:href="#ad"/><use transform="matrix(0.044444444444444446,0,0,0.044444444444444446,138.48888888888885,0)" xlink:href="#X"/><use transform="matrix(0.044444444444444446,0,0,0.044444444444444446,147.37777777777774,0)" xlink:href="#T"/><use transform="matrix(0.044444444444444446,0,0,0.044444444444444446,150.88888888888886,0)" xlink:href="#T"/></g><g id="p"><use transform="matrix(0.03209876543209877,0,0,0.03209876543209877,0,0)" xlink:href="#Q"/><use transform="matrix(0.03209876543209877,0,0,0.03209876543209877,6.419753086419753,0)" xlink:href="#R"/><use transform="matrix(0.03209876543209877,0,0,0.03209876543209877,16.017283950617283,0)" xlink:href="#S"/><use transform="matrix(0.03209876543209877,0,0,0.03209876543209877,22.437037037037037,0)" xlink:href="#T"/><use transform="matrix(0.03209876543209877,0,0,0.03209876543209877,24.97283950617284,0)" xlink:href="#U"/><use transform="matrix(0.03209876543209877,0,0,0.03209876543209877,28.182716049382716,0)" xlink:href="#V"/><use transform="matrix(0.03209876543209877,0,0,0.03209876543209877,30.71851851851852,0)" xlink:href="#aI"/><use transform="matrix(0.03209876543209877,0,0,0.03209876543209877,39.032098765432096,0)" xlink:href="#aF"/><use transform="matrix(0.03209876543209877,0,0,0.03209876543209877,45.45185185185185,0)" xlink:href="#W"/><use transform="matrix(0.03209876543209877,0,0,0.03209876543209877,51.8716049382716,0)" xlink:href="#ad"/><use transform="matrix(0.03209876543209877,0,0,0.03209876543209877,59.575308641975305,0)" xlink:href="#X"/><use transform="matrix(0.03209876543209877,0,0,0.03209876543209877,65.99506172839506,0)" xlink:href="#T"/><use transform="matrix(0.03209876543209877,0,0,0.03209876543209877,68.53086419753086,0)" xlink:href="#T"/><use transform="matrix(0.03209876543209877,0,0,0.03209876543209877,71.06666666666666,0)" xlink:href="#av"/><use transform="matrix(0.03209876543209877,0,0,0.03209876543209877,79.38024691358024,0)" xlink:href="#aw"/><use transform="matrix(0.03209876543209877,0,0,0.03209876543209877,85.79999999999998,0)" xlink:href="#V"/><use transform="matrix(0.03209876543209877,0,0,0.03209876543209877,88.33580246913579,0)" xlink:href="#ax"/><use transform="matrix(0.03209876543209877,0,0,0.03209876543209877,94.11358024691356,0)" xlink:href="#ay"/><use transform="matrix(0.03209876543209877,0,0,0.03209876543209877,102.42716049382713,0)" xlink:href="#aa"/><use transform="matrix(0.03209876543209877,0,0,0.03209876543209877,108.84691358024688,0)" xlink:href="#W"/><use transform="matrix(0.03209876543209877,0,0,0.03209876543209877,115.26666666666662,0)" xlink:href="#az"/><use transform="matrix(0.03209876543209877,0,0,0.03209876543209877,122.97037037037033,0)" xlink:href="#aA"/></g><g id="q"><use transform="matrix(0.03209876543209877,0,0,0.03209876543209877,0,0)" xlink:href="#Q"/><use transform="matrix(0.03209876543209877,0,0,0.03209876543209877,6.419753086419753,0)" xlink:href="#R"/><use transform="matrix(0.03209876543209877,0,0,0.03209876543209877,16.017283950617283,0)" xlink:href="#S"/><use transform="matrix(0.03209876543209877,0,0,0.03209876543209877,22.437037037037037,0)" xlink:href="#T"/><use transform="matrix(0.03209876543209877,0,0,0.03209876543209877,24.97283950617284,0)" xlink:href="#U"/><use transform="matrix(0.03209876543209877,0,0,0.03209876543209877,28.182716049382716,0)" xlink:href="#V"/><use transform="matrix(0.03209876543209877,0,0,0.03209876543209877,30.71851851851852,0)" xlink:href="#aI"/><use transform="matrix(0.03209876543209877,0,0,0.03209876543209877,39.032098765432096,0)" xlink:href="#aF"/><use transform="matrix(0.03209876543209877,0,0,0.03209876543209877,45.45185185185185,0)" xlink:href="#W"/><use transform="matrix(0.03209876543209877,0,0,0.03209876543209877,51.8716049382716,0)" xlink:href="#ad"/><use transform="matrix(0.03209876543209877,0,0,0.03209876543209877,59.575308641975305,0)" xlink:href="#X"/><use transform="matrix(0.03209876543209877,0,0,0.03209876543209877,65.99506172839506,0)" xlink:href="#T"/><use transform="matrix(0.03209876543209877,0,0,0.03209876543209877,68.53086419753086,0)" xlink:href="#T"/><use transform="matrix(0.03209876543209877,0,0,0.03209876543209877,71.06666666666666,0)" xlink:href="#av"/><use transform="matrix(0.03209876543209877,0,0,0.03209876543209877,79.38024691358024,0)" xlink:href="#aw"/><use transform="matrix(0.03209876543209877,0,0,0.03209876543209877,85.79999999999998,0)" xlink:href="#V"/><use transform="matrix(0.03209876543209877,0,0,0.03209876543209877,88.33580246913579,0)" xlink:href="#ax"/><use transform="matrix(0.03209876543209877,0,0,0.03209876543209877,94.11358024691356,0)" xlink:href="#ay"/><use transform="matrix(0.03209876543209877,0,0,0.03209876543209877,102.42716049382713,0)" xlink:href="#aa"/><use transform="matrix(0.03209876543209877,0,0,0.03209876543209877,108.84691358024688,0)" xlink:href="#W"/><use transform="matrix(0.03209876543209877,0,0,0.03209876543209877,115.26666666666662,0)" xlink:href="#az"/><use transform="matrix(0.03209876543209877,0,0,0.03209876543209877,122.97037037037033,0)" xlink:href="#aB"/></g><g id="r"><use transform="matrix(0.03209876543209877,0,0,0.03209876543209877,0,0)" xlink:href="#Q"/><use transform="matrix(0.03209876543209877,0,0,0.03209876543209877,6.419753086419753,0)" xlink:href="#R"/><use transform="matrix(0.03209876543209877,0,0,0.03209876543209877,16.017283950617283,0)" xlink:href="#S"/><use transform="matrix(0.03209876543209877,0,0,0.03209876543209877,22.437037037037037,0)" xlink:href="#T"/><use transform="matrix(0.03209876543209877,0,0,0.03209876543209877,24.97283950617284,0)" xlink:href="#U"/><use transform="matrix(0.03209876543209877,0,0,0.03209876543209877,28.182716049382716,0)" xlink:href="#V"/><use transform="matrix(0.03209876543209877,0,0,0.03209876543209877,30.71851851851852,0)" xlink:href="#aI"/><use transform="matrix(0.03209876543209877,0,0,0.03209876543209877,39.032098765432096,0)" xlink:href="#aF"/><use transform="matrix(0.03209876543209877,0,0,0.03209876543209877,45.45185185185185,0)" xlink:href="#W"/><use transform="matrix(0.03209876543209877,0,0,0.03209876543209877,51.8716049382716,0)" xlink:href="#ad"/><use transform="matrix(0.03209876543209877,0,0,0.03209876543209877,59.575308641975305,0)" xlink:href="#X"/><use transform="matrix(0.03209876543209877,0,0,0.03209876543209877,65.99506172839506,0)" xlink:href="#T"/><use transform="matrix(0.03209876543209877,0,0,0.03209876543209877,68.53086419753086,0)" xlink:href="#T"/><use transform="matrix(0.03209876543209877,0,0,0.03209876543209877,71.06666666666666,0)" xlink:href="#aC"/><use transform="matrix(0.03209876543209877,0,0,0.03209876543209877,77.48641975308641,0)" xlink:href="#V"/><use transform="matrix(0.03209876543209877,0,0,0.03209876543209877,80.02222222222221,0)" xlink:href="#ar"/><use transform="matrix(0.03209876543209877,0,0,0.03209876543209877,86.44197530864196,0)" xlink:href="#S"/><use transform="matrix(0.03209876543209877,0,0,0.03209876543209877,92.8617283950617,0)" xlink:href="#V"/><use transform="matrix(0.03209876543209877,0,0,0.03209876543209877,95.3975308641975,0)" xlink:href="#au"/><use transform="matrix(0.03209876543209877,0,0,0.03209876543209877,101.81728395061725,0)" xlink:href="#V"/><use transform="matrix(0.03209876543209877,0,0,0.03209876543209877,104.35308641975305,0)" xlink:href="#U"/><use transform="matrix(0.03209876543209877,0,0,0.03209876543209877,107.56296296296293,0)" xlink:href="#aD"/><use transform="matrix(0.03209876543209877,0,0,0.03209876543209877,113.3407407407407,0)" xlink:href="#aE"/><use transform="matrix(0.03209876543209877,0,0,0.03209876543209877,121.04444444444441,0)" xlink:href="#at"/><use transform="matrix(0.03209876543209877,0,0,0.03209876543209877,124.86419753086416,0)" xlink:href="#aF"/><use transform="matrix(0.03209876543209877,0,0,0.03209876543209877,131.28395061728392,0)" xlink:href="#aG"/><use transform="matrix(0.03209876543209877,0,0,0.03209876543209877,137.0617283950617,0)" xlink:href="#V"/><use transform="matrix(0.03209876543209877,0,0,0.03209876543209877,139.5975308641975,0)" xlink:href="#au"/><use transform="matrix(0.03209876543209877,0,0,0.03209876543209877,146.01728395061724,0)" xlink:href="#X"/><use transform="matrix(0.03209876543209877,0,0,0.03209876543209877,152.437037037037,0)" xlink:href="#at"/></g><g id="s"><use transform="matrix(0.03209876543209877,0,0,0.03209876543209877,0,0)" xlink:href="#Q"/><use transform="matrix(0.03209876543209877,0,0,0.03209876543209877,6.419753086419753,0)" xlink:href="#aw"/><use transform="matrix(0.03209876543209877,0,0,0.03209876543209877,12.839506172839506,0)" xlink:href="#X"/><use transform="matrix(0.03209876543209877,0,0,0.03209876543209877,19.25925925925926,0)" xlink:href="#ax"/><use transform="matrix(0.03209876543209877,0,0,0.03209876543209877,25.037037037037038,0)" xlink:href="#U"/><use transform="matrix(0.03209876543209877,0,0,0.03209876543209877,28.246913580246915,0)" xlink:href="#X"/><use transform="matrix(0.03209876543209877,0,0,0.03209876543209877,34.66666666666667,0)" xlink:href="#au"/><use transform="matrix(0.03209876543209877,0,0,0.03209876543209877,41.086419753086425,0)" xlink:href="#Z"/><use transform="matrix(0.03209876543209877,0,0,0.03209876543209877,48.79012345679013,0)" xlink:href="#aa"/><use transform="matrix(0.03209876543209877,0,0,0.03209876543209877,55.20987654320988,0)" xlink:href="#U"/><use transform="matrix(0.03209876543209877,0,0,0.03209876543209877,58.41975308641976,0)" xlink:href="#ab"/><use transform="matrix(0.03209876543209877,0,0,0.03209876543209877,64.19753086419755,0)" xlink:href="#ac"/><use transform="matrix(0.03209876543209877,0,0,0.03209876543209877,70.61728395061729,0)" xlink:href="#ad"/><use transform="matrix(0.03209876543209877,0,0,0.03209876543209877,78.320987654321,0)" xlink:href="#X"/><use transform="matrix(0.03209876543209877,0,0,0.03209876543209877,84.74074074074076,0)" xlink:href="#T"/><use transform="matrix(0.03209876543209877,0,0,0.03209876543209877,87.27654320987656,0)" xlink:href="#T"/></g><path fill="#b392f0" d="M30 0v-248h187v28H63v79h144v27H63v87h162V0H30" id="aJ"/><path fill="#b392f0" d="M63-220v92h138v28H63V0H30v-248h175v28H63" id="aK"/><path fill="#b392f0" d="M127-220V0H93v-220H8v-28h204v28h-85" id="aL"/><path fill="#b392f0" d="M143 0L79-87 56-68V0H24v-261h32v163l83-92h37l-77 82L181 0h-38" id="aM"/><g id="t"><use transform="matrix(0.044444444444444446,0,0,0.044444444444444446,0,0)" xlink:href="#R"/><use transform="matrix(0.044444444444444446,0,0,0.044444444444444446,13.28888888888889,0)" xlink:href="#S"/><use transform="matrix(0.044444444444444446,0,0,0.044444444444444446,22.177777777777777,0)" xlink:href="#T"/><use transform="matrix(0.044444444444444446,0,0,0.044444444444444446,25.68888888888889,0)" xlink:href="#U"/><use transform="matrix(0.044444444444444446,0,0,0.044444444444444446,30.133333333333333,0)" xlink:href="#V"/><use transform="matrix(0.044444444444444446,0,0,0.044444444444444446,33.644444444444446,0)" xlink:href="#W"/><use transform="matrix(0.044444444444444446,0,0,0.044444444444444446,42.53333333333333,0)" xlink:href="#T"/><use transform="matrix(0.044444444444444446,0,0,0.044444444444444446,46.044444444444444,0)" xlink:href="#X"/><use transform="matrix(0.044444444444444446,0,0,0.044444444444444446,54.93333333333334,0)" xlink:href="#Y"/><use transform="matrix(0.044444444444444446,0,0,0.044444444444444446,62.93333333333334,0)" xlink:href="#Z"/><use transform="matrix(0.044444444444444446,0,0,0.044444444444444446,73.60000000000001,0)" xlink:href="#aa"/><use transform="matrix(0.044444444444444446,0,0,0.044444444444444446,82.4888888888889,0)" xlink:href="#U"/><use transform="matrix(0.044444444444444446,0,0,0.044444444444444446,86.93333333333334,0)" xlink:href="#ab"/><use transform="matrix(0.044444444444444446,0,0,0.044444444444444446,94.93333333333334,0)" xlink:href="#ac"/><use transform="matrix(0.044444444444444446,0,0,0.044444444444444446,103.82222222222222,0)" xlink:href="#ad"/><use transform="matrix(0.044444444444444446,0,0,0.044444444444444446,114.4888888888889,0)" xlink:href="#X"/><use transform="matrix(0.044444444444444446,0,0,0.044444444444444446,123.37777777777778,0)" xlink:href="#T"/><use transform="matrix(0.044444444444444446,0,0,0.044444444444444446,126.8888888888889,0)" xlink:href="#T"/><use transform="matrix(0.044444444444444446,0,0,0.044444444444444446,130.4,0)" xlink:href="#aJ"/><use transform="matrix(0.044444444444444446,0,0,0.044444444444444446,141.06666666666666,0)" xlink:href="#U"/><use transform="matrix(0.044444444444444446,0,0,0.044444444444444446,145.51111111111112,0)" xlink:href="#ac"/><use transform="matrix(0.044444444444444446,0,0,0.044444444444444446,154.4,0)" xlink:href="#aK"/><use transform="matrix(0.044444444444444446,0,0,0.044444444444444446,164.13333333333333,0)" xlink:href="#aF"/><use transform="matrix(0.044444444444444446,0,0,0.044444444444444446,173.0222222222222,0)" xlink:href="#at"/><use transform="matrix(0.044444444444444446,0,0,0.044444444444444446,178.3111111111111,0)" xlink:href="#aL"/><use transform="matrix(0.044444444444444446,0,0,0.044444444444444446,186.26666666666662,0)" xlink:href="#aF"/><use transform="matrix(0.044444444444444446,0,0,0.044444444444444446,195.1555555555555,0)" xlink:href="#aM"/><use transform="matrix(0.044444444444444446,0,0,0.044444444444444446,203.1555555555555,0)" xlink:href="#X"/><use transform="matrix(0.044444444444444446,0,0,0.044444444444444446,212.04444444444442,0)" xlink:href="#aw"/></g><g id="u"><use transform="matrix(0.044444444444444446,0,0,0.044444444444444446,0,0)" xlink:href="#R"/><use transform="matrix(0.044444444444444446,0,0,0.044444444444444446,13.28888888888889,0)" xlink:href="#S"/><use transform="matrix(0.044444444444444446,0,0,0.044444444444444446,22.177777777777777,0)" xlink:href="#T"/><use transform="matrix(0.044444444444444446,0,0,0.044444444444444446,25.68888888888889,0)" xlink:href="#U"/><use transform="matrix(0.044444444444444446,0,0,0.044444444444444446,30.133333333333333,0)" xlink:href="#V"/><use transform="matrix(0.044444444444444446,0,0,0.044444444444444446,33.644444444444446,0)" xlink:href="#W"/><use transform="matrix(0.044444444444444446,0,0,0.044444444444444446,42.53333333333333,0)" xlink:href="#T"/><use transform="matrix(0.044444444444444446,0,0,0.044444444444444446,46.044444444444444,0)" xlink:href="#X"/><use transform="matrix(0.044444444444444446,0,0,0.044444444444444446,54.93333333333334,0)" xlink:href="#Y"/><use transform="matrix(0.044444444444444446,0,0,0.044444444444444446,62.93333333333334,0)" xlink:href="#Z"/><use transform="matrix(0.044444444444444446,0,0,0.044444444444444446,73.60000000000001,0)" xlink:href="#aa"/><use transform="matrix(0.044444444444444446,0,0,0.044444444444444446,82.4888888888889,0)" xlink:href="#U"/><use transform="matrix(0.044444444444444446,0,0,0.044444444444444446,86.93333333333334,0)" xlink:href="#ab"/><use transform="matrix(0.044444444444444446,0,0,0.044444444444444446,94.93333333333334,0)" xlink:href="#ac"/><use transform="matrix(0.044444444444444446,0,0,0.044444444444444446,103.82222222222222,0)" xlink:href="#ad"/><use transform="matrix(0.044444444444444446,0,0,0.044444444444444446,114.4888888888889,0)" xlink:href="#X"/><use transform="matrix(0.044444444444444446,0,0,0.044444444444444446,123.37777777777778,0)" xlink:href="#T"/><use transform="matrix(0.044444444444444446,0,0,0.044444444444444446,126.8888888888889,0)" xlink:href="#T"/><use transform="matrix(0.044444444444444446,0,0,0.044444444444444446,130.4,0)" xlink:href="#aL"/><use transform="matrix(0.044444444444444446,0,0,0.044444444444444446,138.35555555555555,0)" xlink:href="#aF"/><use transform="matrix(0.044444444444444446,0,0,0.044444444444444446,147.24444444444444,0)" xlink:href="#aM"/><use transform="matrix(0.044444444444444446,0,0,0.044444444444444446,155.24444444444444,0)" xlink:href="#X"/><use transform="matrix(0.044444444444444446,0,0,0.044444444444444446,164.13333333333333,0)" xlink:href="#aw"/><use transform="matrix(0.044444444444444446,0,0,0.044444444444444446,173.0222222222222,0)" xlink:href="#aK"/><use transform="matrix(0.044444444444444446,0,0,0.044444444444444446,182.75555555555553,0)" xlink:href="#aF"/><use transform="matrix(0.044444444444444446,0,0,0.044444444444444446,191.64444444444442,0)" xlink:href="#at"/><use transform="matrix(0.044444444444444446,0,0,0.044444444444444446,196.9333333333333,0)" xlink:href="#aJ"/><use transform="matrix(0.044444444444444446,0,0,0.044444444444444446,207.59999999999997,0)" xlink:href="#U"/><use transform="matrix(0.044444444444444446,0,0,0.044444444444444446,212.04444444444442,0)" xlink:href="#ac"/></g><g id="v"><use transform="matrix(0.044444444444444446,0,0,0.044444444444444446,0,0)" xlink:href="#R"/><use transform="matrix(0.044444444444444446,0,0,0.044444444444444446,13.28888888888889,0)" xlink:href="#S"/><use transform="matrix(0.044444444444444446,0,0,0.044444444444444446,22.177777777777777,0)" xlink:href="#T"/><use transform="matrix(0.044444444444444446,0,0,0.044444444444444446,25.68888888888889,0)" xlink:href="#U"/><use transform="matrix(0.044444444444444446,0,0,0.044444444444444446,30.133333333333333,0)" xlink:href="#V"/><use transform="matrix(0.044444444444444446,0,0,0.044444444444444446,33.644444444444446,0)" xlink:href="#W"/><use transform="matrix(0.044444444444444446,0,0,0.044444444444444446,42.53333333333333,0)" xlink:href="#T"/><use transform="matrix(0.044444444444444446,0,0,0.044444444444444446,46.044444444444444,0)" xlink:href="#X"/><use transform="matrix(0.044444444444444446,0,0,0.044444444444444446,54.93333333333334,0)" xlink:href="#Y"/><use transform="matrix(0.044444444444444446,0,0,0.044444444444444446,62.93333333333334,0)" xlink:href="#Z"/><use transform="matrix(0.044444444444444446,0,0,0.044444444444444446,73.60000000000001,0)" xlink:href="#aa"/><use transform="matrix(0.044444444444444446,0,0,0.044444444444444446,82.4888888888889,0)" xlink:href="#U"/><use transform="matrix(0.044444444444444446,0,0,0.044444444444444446,86.93333333333334,0)" xlink:href="#ab"/><use transform="matrix(0.044444444444444446,0,0,0.044444444444444446,94.93333333333334,0)" xlink:href="#ac"/><use transform="matrix(0.044444444444444446,0,0,0.044444444444444446,103.82222222222222,0)" xlink:href="#ad"/><use transform="matrix(0.044444444444444446,0,0,0.044444444444444446,114.4888888888889,0)" xlink:href="#X"/><use transform="matrix(0.044444444444444446,0,0,0.044444444444444446,123.37777777777778,0)" xlink:href="#T"/><use transform="matrix(0.044444444444444446,0,0,0.044444444444444446,126.8888888888889,0)" xlink:href="#T"/><use transform="matrix(0.044444444444444446,0,0,0.044444444444444446,130.4,0)" xlink:href="#aL"/><use transform="matrix(0.044444444444444446,0,0,0.044444444444444446,138.35555555555555,0)" xlink:href="#aF"/><use transform="matrix(0.044444444444444446,0,0,0.044444444444444446,147.24444444444444,0)" xlink:href="#aM"/><use transform="matrix(0.044444444444444446,0,0,0.044444444444444446,155.24444444444444,0)" xlink:href="#X"/><use transform="matrix(0.044444444444444446,0,0,0.044444444444444446,164.13333333333333,0)" xlink:href="#aw"/><use transform="matrix(0.044444444444444446,0,0,0.044444444444444446,173.0222222222222,0)" xlink:href="#aK"/><use transform="matrix(0.044444444444444446,0,0,0.044444444444444446,182.75555555555553,0)" xlink:href="#aF"/><use transform="matrix(0.044444444444444446,0,0,0.044444444444444446,191.64444444444442,0)" xlink:href="#at"/><use transform="matrix(0.044444444444444446,0,0,0.044444444444444446,196.9333333333333,0)" xlink:href="#aL"/><use transform="matrix(0.044444444444444446,0,0,0.044444444444444446,204.88888888888886,0)" xlink:href="#aF"/><use transform="matrix(0.044444444444444446,0,0,0.044444444444444446,213.77777777777774,0)" xlink:href="#aM"/><use transform="matrix(0.044444444444444446,0,0,0.044444444444444446,221.77777777777774,0)" xlink:href="#X"/><use transform="matrix(0.044444444444444446,0,0,0.044444444444444446,230.66666666666663,0)" xlink:href="#aw"/></g><g id="w"><use transform="matrix(0.044444444444444446,0,0,0.044444444444444446,0,0)" xlink:href="#R"/><use transform="matrix(0.044444444444444446,0,0,0.044444444444444446,13.28888888888889,0)" xlink:href="#S"/><use transform="matrix(0.044444444444444446,0,0,0.044444444444444446,22.177777777777777,0)" xlink:href="#T"/><use transform="matrix(0.044444444444444446,0,0,0.044444444444444446,25.68888888888889,0)" xlink:href="#U"/><use transform="matrix(0.044444444444444446,0,0,0.044444444444444446,30.133333333333333,0)" xlink:href="#V"/><use transform="matrix(0.044444444444444446,0,0,0.044444444444444446,33.644444444444446,0)" xlink:href="#W"/><use transform="matrix(0.044444444444444446,0,0,0.044444444444444446,42.53333333333333,0)" xlink:href="#T"/><use transform="matrix(0.044444444444444446,0,0,0.044444444444444446,46.044444444444444,0)" xlink:href="#X"/><use transform="matrix(0.044444444444444446,0,0,0.044444444444444446,54.93333333333334,0)" xlink:href="#Y"/><use transform="matrix(0.044444444444444446,0,0,0.044444444444444446,62.93333333333334,0)" xlink:href="#aH"/><use transform="matrix(0.044444444444444446,0,0,0.044444444444444446,76.22222222222223,0)" xlink:href="#S"/><use transform="matrix(0.044444444444444446,0,0,0.044444444444444446,85.11111111111111,0)" xlink:href="#T"/><use transform="matrix(0.044444444444444446,0,0,0.044444444444444446,88.62222222222222,0)" xlink:href="#U"/><use transform="matrix(0.044444444444444446,0,0,0.044444444444444446,93.06666666666668,0)" xlink:href="#V"/><use transform="matrix(0.044444444444444446,0,0,0.044444444444444446,96.57777777777775,0)" xlink:href="#aI"/><use transform="matrix(0.044444444444444446,0,0,0.044444444444444446,108.08888888888887,0)" xlink:href="#aF"/><use transform="matrix(0.044444444444444446,0,0,0.044444444444444446,116.97777777777776,0)" xlink:href="#W"/><use transform="matrix(0.044444444444444446,0,0,0.044444444444444446,125.86666666666665,0)" xlink:href="#ad"/><use transform="matrix(0.044444444444444446,0,0,0.044444444444444446,136.5333333333333,0)" xlink:href="#X"/><use transform="matrix(0.044444444444444446,0,0,0.044444444444444446,145.4222222222222,0)" xlink:href="#T"/><use transform="matrix(0.044444444444444446,0,0,0.044444444444444446,148.9333333333333,0)" xlink:href="#T"/><use transform="matrix(0.044444444444444446,0,0,0.044444444444444446,152.44444444444443,0)" xlink:href="#aJ"/><use transform="matrix(0.044444444444444446,0,0,0.044444444444444446,163.1111111111111,0)" xlink:href="#U"/><use transform="matrix(0.044444444444444446,0,0,0.044444444444444446,167.55555555555554,0)" xlink:href="#ac"/><use transform="matrix(0.044444444444444446,0,0,0.044444444444444446,176.44444444444443,0)" xlink:href="#aK"/><use transform="matrix(0.044444444444444446,0,0,0.044444444444444446,186.17777777777775,0)" xlink:href="#aF"/><use transform="matrix(0.044444444444444446,0,0,0.044444444444444446,195.06666666666663,0)" xlink:href="#at"/><use transform="matrix(0.044444444444444446,0,0,0.044444444444444446,200.35555555555553,0)" xlink:href="#aL"/><use transform="matrix(0.044444444444444446,0,0,0.044444444444444446,208.31111111111107,0)" xlink:href="#aF"/><use transform="matrix(0.044444444444444446,0,0,0.044444444444444446,217.19999999999996,0)" xlink:href="#aM"/><use transform="matrix(0.044444444444444446,0,0,0.044444444444444446,225.19999999999996,0)" xlink:href="#X"/><use transform="matrix(0.044444444444444446,0,0,0.044444444444444446,234.08888888888885,0)" xlink:href="#aw"/></g><g id="x"><use transform="matrix(0.044444444444444446,0,0,0.044444444444444446,0,0)" xlink:href="#R"/><use transform="matrix(0.044444444444444446,0,0,0.044444444444444446,13.28888888888889,0)" xlink:href="#S"/><use transform="matrix(0.044444444444444446,0,0,0.044444444444444446,22.177777777777777,0)" xlink:href="#T"/><use transform="matrix(0.044444444444444446,0,0,0.044444444444444446,25.68888888888889,0)" xlink:href="#U"/><use transform="matrix(0.044444444444444446,0,0,0.044444444444444446,30.133333333333333,0)" xlink:href="#V"/><use transform="matrix(0.044444444444444446,0,0,0.044444444444444446,33.644444444444446,0)" xlink:href="#W"/><use transform="matrix(0.044444444444444446,0,0,0.044444444444444446,42.53333333333333,0)" xlink:href="#T"/><use transform="matrix(0.044444444444444446,0,0,0.044444444444444446,46.044444444444444,0)" xlink:href="#X"/><use transform="matrix(0.044444444444444446,0,0,0.044444444444444446,54.93333333333334,0)" xlink:href="#Y"/><use transform="matrix(0.044444444444444446,0,0,0.044444444444444446,62.93333333333334,0)" xlink:href="#aH"/><use transform="matrix(0.044444444444444446,0,0,0.044444444444444446,76.22222222222223,0)" xlink:href="#S"/><use transform="matrix(0.044444444444444446,0,0,0.044444444444444446,85.11111111111111,0)" xlink:href="#T"/><use transform="matrix(0.044444444444444446,0,0,0.044444444444444446,88.62222222222222,0)" xlink:href="#U"/><use transform="matrix(0.044444444444444446,0,0,0.044444444444444446,93.06666666666668,0)" xlink:href="#V"/><use transform="matrix(0.044444444444444446,0,0,0.044444444444444446,96.57777777777775,0)" xlink:href="#aI"/><use transform="matrix(0.044444444444444446,0,0,0.044444444444444446,108.08888888888887,0)" xlink:href="#aF"/><use transform="matrix(0.044444444444444446,0,0,0.044444444444444446,116.97777777777776,0)" xlink:href="#W"/><use transform="matrix(0.044444444444444446,0,0,0.044444444444444446,125.86666666666665,0)" xlink:href="#ad"/><use transform="matrix(0.044444444444444446,0,0,0.044444444444444446,136.5333333333333,0)" xlink:href="#X"/><use transform="matrix(0.044444444444444446,0,0,0.044444444444444446,145.4222222222222,0)" xlink:href="#T"/><use transform="matrix(0.044444444444444446,0,0,0.044444444444444446,148.9333333333333,0)" xlink:href="#T"/><use transform="matrix(0.044444444444444446,0,0,0.044444444444444446,152.44444444444443,0)" xlink:href="#aL"/><use transform="matrix(0.044444444444444446,0,0,0.044444444444444446,160.39999999999998,0)" xlink:href="#aF"/><use transform="matrix(0.044444444444444446,0,0,0.044444444444444446,169.28888888888886,0)" xlink:href="#aM"/><use transform="matrix(0.044444444444444446,0,0,0.044444444444444446,177.28888888888886,0)" xlink:href="#X"/><use transform="matrix(0.044444444444444446,0,0,0.044444444444444446,186.17777777777775,0)" xlink:href="#aw"/><use transform="matrix(0.044444444444444446,0,0,0.044444444444444446,195.06666666666663,0)" xlink:href="#aK"/><use transform="matrix(0.044444444444444446,0,0,0.044444444444444446,204.79999999999995,0)" xlink:href="#aF"/><use transform="matrix(0.044444444444444446,0,0,0.044444444444444446,213.68888888888887,0)" xlink:href="#at"/><use transform="matrix(0.044444444444444446,0,0,0.044444444444444446,218.97777777777773,0)" xlink:href="#aL"/><use transform="matrix(0.044444444444444446,0,0,0.044444444444444446,226.93333333333325,0)" xlink:href="#aF"/><use transform="matrix(0.044444444444444446,0,0,0.044444444444444446,235.82222222222214,0)" xlink:href="#aM"/><use transform="matrix(0.044444444444444446,0,0,0.044444444444444446,243.82222222222214,0)" xlink:href="#X"/><use transform="matrix(0.044444444444444446,0,0,0.044444444444444446,252.71111111111105,0)" xlink:href="#aw"/></g><g id="y"><use transform="matrix(0.044444444444444446,0,0,0.044444444444444446,0,0)" xlink:href="#R"/><use transform="matrix(0.044444444444444446,0,0,0.044444444444444446,13.28888888888889,0)" xlink:href="#S"/><use transform="matrix(0.044444444444444446,0,0,0.044444444444444446,22.177777777777777,0)" xlink:href="#T"/><use transform="matrix(0.044444444444444446,0,0,0.044444444444444446,25.68888888888889,0)" xlink:href="#U"/><use transform="matrix(0.044444444444444446,0,0,0.044444444444444446,30.133333333333333,0)" xlink:href="#V"/><use transform="matrix(0.044444444444444446,0,0,0.044444444444444446,33.644444444444446,0)" xlink:href="#W"/><use transform="matrix(0.044444444444444446,0,0,0.044444444444444446,42.53333333333333,0)" xlink:href="#T"/><use transform="matrix(0.044444444444444446,0,0,0.044444444444444446,46.044444444444444,0)" xlink:href="#X"/><use transform="matrix(0.044444444444444446,0,0,0.044444444444444446,54.93333333333334,0)" xlink:href="#Y"/><use transform="matrix(0.044444444444444446,0,0,0.044444444444444446,62.93333333333334,0)" xlink:href="#aH"/><use transform="matrix(0.044444444444444446,0,0,0.044444444444444446,76.22222222222223,0)" xlink:href="#S"/><use transform="matrix(0.044444444444444446,0,0,0.044444444444444446,85.11111111111111,0)" xlink:href="#T"/><use transform="matrix(0.044444444444444446,0,0,0.044444444444444446,88.62222222222222,0)" xlink:href="#U"/><use transform="matrix(0.044444444444444446,0,0,0.044444444444444446,93.06666666666668,0)" xlink:href="#V"/><use transform="matrix(0.044444444444444446,0,0,0.044444444444444446,96.57777777777775,0)" xlink:href="#aI"/><use transform="matrix(0.044444444444444446,0,0,0.044444444444444446,108.08888888888887,0)" xlink:href="#aF"/><use transform="matrix(0.044444444444444446,0,0,0.044444444444444446,116.97777777777776,0)" xlink:href="#W"/><use transform="matrix(0.044444444444444446,0,0,0.044444444444444446,125.86666666666665,0)" xlink:href="#ad"/><use transform="matrix(0.044444444444444446,0,0,0.044444444444444446,136.5333333333333,0)" xlink:href="#X"/><use transform="matrix(0.044444444444444446,0,0,0.044444444444444446,145.4222222222222,0)" xlink:href="#T"/><use transform="matrix(0.044444444444444446,0,0,0.044444444444444446,148.9333333333333,0)" xlink:href="#T"/><use transform="matrix(0.044444444444444446,0,0,0.044444444444444446,152.44444444444443,0)" xlink:href="#aL"/><use transform="matrix(0.044444444444444446,0,0,0.044444444444444446,160.39999999999998,0)" xlink:href="#aF"/><use transform="matrix(0.044444444444444446,0,0,0.044444444444444446,169.28888888888886,0)" xlink:href="#aM"/><use transform="matrix(0.044444444444444446,0,0,0.044444444444444446,177.28888888888886,0)" xlink:href="#X"/><use transform="matrix(0.044444444444444446,0,0,0.044444444444444446,186.17777777777775,0)" xlink:href="#aw"/><use transform="matrix(0.044444444444444446,0,0,0.044444444444444446,195.06666666666663,0)" xlink:href="#aK"/><use transform="matrix(0.044444444444444446,0,0,0.044444444444444446,204.79999999999995,0)" xlink:href="#aF"/><use transform="matrix(0.044444444444444446,0,0,0.044444444444444446,213.68888888888887,0)" xlink:href="#at"/><use transform="matrix(0.044444444444444446,0,0,0.044444444444444446,218.97777777777773,0)" xlink:href="#aJ"/><use transform="matrix(0.044444444444444446,0,0,0.044444444444444446,229.64444444444436,0)" xlink:href="#U"/><use transform="matrix(0.044444444444444446,0,0,0.044444444444444446,234.08888888888885,0)" xlink:href="#ac"/></g></defs></g></svg>